<svg xmlns="http://www.w3.org/2000/svg" width="32.671" height="20.482" viewBox="0 0 32.671 20.482">
  <path id="Icon_awesome-behance" data-name="Icon awesome-behance" d="M13.159,14.479a4.3,4.3,0,0,0,2.745-4.2c0-4-2.983-4.98-6.426-4.98H0V25.4H9.745c3.653,0,7.084-1.753,7.084-5.837a4.843,4.843,0,0,0-3.67-5.088ZM4.419,8.733H8.565c1.594,0,3.029.448,3.029,2.3,0,1.707-1.117,2.394-2.694,2.394H4.419V8.733ZM9.143,21.989H4.419V16.453H9.234c1.946,0,3.176.811,3.176,2.87,0,2.031-1.469,2.666-3.267,2.666ZM29.478,8.336H21.327V6.357h8.151v1.98Zm3.193,10c0-4.305-2.518-7.9-7.084-7.9-4.436,0-7.447,3.335-7.447,7.7,0,4.532,2.853,7.64,7.447,7.64,3.477,0,5.729-1.565,6.812-4.895H28.871c-.38,1.242-1.946,1.9-3.159,1.9-2.343,0-3.573-1.373-3.573-3.7h10.5C32.654,18.846,32.671,18.591,32.671,18.336Zm-10.527-1.77a3.124,3.124,0,0,1,3.318-3.108c2.008,0,3.018,1.18,3.188,3.108Z" transform="translate(0 -5.302)"/>
</svg>
