<svg xmlns="http://www.w3.org/2000/svg" width="26.608" height="26.602" viewBox="0 0 26.608 26.602">
  <path id="Icon_awesome-instagram" data-name="Icon awesome-instagram" d="M13.3,8.718a6.821,6.821,0,1,0,6.821,6.821A6.81,6.81,0,0,0,13.3,8.718Zm0,11.255a4.434,4.434,0,1,1,4.434-4.434A4.442,4.442,0,0,1,13.3,19.973Zm8.69-11.534A1.591,1.591,0,1,1,20.4,6.849,1.587,1.587,0,0,1,21.992,8.439Zm4.517,1.615A7.873,7.873,0,0,0,24.361,4.48a7.925,7.925,0,0,0-5.574-2.149c-2.2-.125-8.779-.125-10.976,0A7.913,7.913,0,0,0,2.237,4.474,7.9,7.9,0,0,0,.088,10.048c-.125,2.2-.125,8.779,0,10.976A7.873,7.873,0,0,0,2.237,26.6a7.935,7.935,0,0,0,5.574,2.149c2.2.125,8.779.125,10.976,0A7.873,7.873,0,0,0,24.361,26.6a7.925,7.925,0,0,0,2.149-5.574c.125-2.2.125-8.773,0-10.97ZM23.672,23.38a4.489,4.489,0,0,1-2.529,2.529c-1.751.695-5.906.534-7.842.534s-6.1.154-7.842-.534A4.489,4.489,0,0,1,2.932,23.38c-.695-1.751-.534-5.906-.534-7.842s-.154-6.1.534-7.842A4.489,4.489,0,0,1,5.46,5.169c1.751-.695,5.906-.534,7.842-.534s6.1-.154,7.842.534A4.489,4.489,0,0,1,23.672,7.7c.695,1.751.534,5.906.534,7.842S24.367,21.635,23.672,23.38Z" transform="translate(0.005 -2.238)"/>
</svg>
