<svg xmlns="http://www.w3.org/2000/svg" width="28.708" height="27.99" viewBox="0 0 28.708 27.99">
  <path id="Icon_awesome-github" data-name="Icon awesome-github" d="M9.6,23.1c0,.116-.133.208-.3.208-.191.017-.324-.075-.324-.208,0-.116.133-.208.3-.208C9.452,22.875,9.6,22.967,9.6,23.1Zm-1.8-.26c-.041.116.075.249.249.284a.271.271,0,0,0,.359-.116c.035-.116-.075-.249-.249-.3A.3.3,0,0,0,7.8,22.84Zm2.558-.1c-.168.041-.284.15-.266.284.017.116.168.191.341.15s.284-.15.266-.266S10.528,22.724,10.36,22.741ZM14.169.563A13.879,13.879,0,0,0,0,14.685,14.511,14.511,0,0,0,9.81,28.529c.741.133,1-.324,1-.7,0-.359-.017-2.338-.017-3.554,0,0-4.051.868-4.9-1.725,0,0-.66-1.684-1.609-2.118,0,0-1.325-.909.093-.891A3.055,3.055,0,0,1,6.61,21.034a3.06,3.06,0,0,0,4.219,1.21,3.217,3.217,0,0,1,.926-1.95c-3.235-.359-6.5-.828-6.5-6.4a4.386,4.386,0,0,1,1.366-3.409,5.468,5.468,0,0,1,.15-3.93c1.21-.376,3.994,1.563,3.994,1.563a13.673,13.673,0,0,1,7.269,0s2.784-1.945,3.994-1.563a5.466,5.466,0,0,1,.15,3.93A4.5,4.5,0,0,1,23.672,13.9c0,5.585-3.409,6.031-6.644,6.4a3.423,3.423,0,0,1,.984,2.686c0,1.95-.017,4.364-.017,4.839,0,.376.266.833,1,.7a14.377,14.377,0,0,0,9.712-13.833A14.192,14.192,0,0,0,14.169.563ZM5.626,20.525c-.075.058-.058.191.041.3.093.093.226.133.3.058.075-.058.058-.191-.041-.3C5.834,20.49,5.7,20.449,5.626,20.525ZM5,20.056c-.041.075.017.168.133.226a.172.172,0,0,0,.249-.041c.041-.075-.017-.168-.133-.226C5.134,19.981,5.041,20,5,20.056Zm1.875,2.06c-.093.075-.058.249.075.359.133.133.3.15.376.058.075-.075.041-.249-.075-.359C7.125,22.041,6.951,22.024,6.876,22.116Zm-.66-.851c-.093.058-.093.208,0,.341s.249.191.324.133a.264.264,0,0,0,0-.359C6.459,21.248,6.309,21.19,6.216,21.266Z" transform="translate(0 -0.563)"/>
</svg>
