<svg xmlns="http://www.w3.org/2000/svg" width="24.5" height="24.5" viewBox="0 0 24.5 24.5">
  <path id="Icon_awesome-linkedin" data-name="Icon awesome-linkedin" d="M22.75,2.25H1.745A1.758,1.758,0,0,0,0,4.016V24.984A1.758,1.758,0,0,0,1.745,26.75H22.75a1.762,1.762,0,0,0,1.75-1.766V4.016A1.762,1.762,0,0,0,22.75,2.25ZM7.4,23.25H3.773V11.558H7.41V23.25ZM5.589,9.961A2.105,2.105,0,1,1,7.695,7.855,2.106,2.106,0,0,1,5.589,9.961ZM21.016,23.25H17.385V17.563c0-1.356-.027-3.1-1.887-3.1-1.892,0-2.182,1.477-2.182,3V23.25H9.685V11.558h3.484v1.6h.049a3.825,3.825,0,0,1,3.44-1.887c3.675,0,4.359,2.423,4.359,5.573Z" transform="translate(0 -2.25)"/>
</svg>
